<svg width="398" height="852" viewBox="0 0 398 852" fill="none" xmlns="http://www.w3.org/2000/svg">
<g clip-path="url(#clip0_6_210)" filter="url(#filter0_d_6_210)">
<rect width="390" height="844" transform="translate(4)" fill="white"/>
<g filter="url(#filter1_d_6_210)">
<ellipse cx="357" cy="89" rx="12" ry="13" fill="#C5FCF1" fill-opacity="0.3" shape-rendering="crispEdges"/>
</g>
<g filter="url(#filter2_d_6_210)">
<ellipse cx="48" cy="89" rx="12" ry="13" fill="#CADEFC" fill-opacity="0.3" shape-rendering="crispEdges"/>
</g>
<g filter="url(#filter3_d_6_210)">
<ellipse cx="352" cy="697" rx="12" ry="13" fill="#FFEAC7" fill-opacity="0.3" shape-rendering="crispEdges"/>
</g>
<g filter="url(#filter4_d_6_210)">
<ellipse cx="43" cy="697" rx="12" ry="13" fill="#FFDDC7" fill-opacity="0.3" shape-rendering="crispEdges"/>
</g>
<path d="M44.4558 20.8907C47.1698 20.8907 49.5313 22.8204 49.5313 27.4025V27.4201C49.5313 31.7025 47.6016 34.2403 44.403 34.2403C42.0679 34.2403 40.3232 32.8568 39.9179 30.9095L39.9002 30.8125H42.1384L42.1648 30.9007C42.4997 31.7906 43.2839 32.3722 44.403 32.3722C46.4208 32.3722 47.2755 30.3984 47.3725 27.9664C47.3725 27.8695 47.3813 27.7725 47.3813 27.6756H47.205C46.738 28.6801 45.6278 29.5701 43.8831 29.5701C41.4423 29.5701 39.7328 27.7902 39.7328 25.3758V25.3582C39.7328 22.7764 41.6978 20.8907 44.4558 20.8907ZM44.447 27.8254C45.8833 27.8254 46.9848 26.7856 46.9848 25.3493V25.3317C46.9848 23.8778 45.8833 22.7411 44.4735 22.7411C43.0724 22.7411 41.9533 23.8602 41.9533 25.2789V25.2965C41.9533 26.768 43.0019 27.8254 44.447 27.8254ZM53.0987 25.6842C52.2968 25.6842 51.6976 25.0674 51.6976 24.292C51.6976 23.5077 52.2968 22.8997 53.0987 22.8997C53.9093 22.8997 54.4997 23.5077 54.4997 24.292C54.4997 25.0674 53.9093 25.6842 53.0987 25.6842ZM53.0987 32.2224C52.2968 32.2224 51.6976 31.6144 51.6976 30.8302C51.6976 30.0459 52.2968 29.4379 53.0987 29.4379C53.9093 29.4379 54.4997 30.0459 54.4997 30.8302C54.4997 31.6144 53.9093 32.2224 53.0987 32.2224ZM62.8341 33.923V31.4822H56.6132V29.623C58.2609 26.7592 60.0673 23.8338 61.7944 21.2079H65.0106V29.6054H66.7201V31.4822H65.0106V33.923H62.8341ZM58.7279 29.6582H62.8694V23.0231H62.7372C61.4331 25.0145 59.9616 27.3672 58.7279 29.526V29.6582ZM71.5563 33.923V23.446H71.4065L68.2431 25.6842V23.543L71.5651 21.2079H73.8297V33.923H71.5563Z" fill="#292929"/>
<path opacity="0.35" d="M341.237 24.4154C341.237 22.3796 342.888 20.7293 344.923 20.7293H362.97C365.005 20.7293 366.656 22.3796 366.656 24.4154V29.7231C366.656 31.7589 365.005 33.4092 362.97 33.4092H344.923C342.888 33.4092 341.237 31.7589 341.237 29.7231V24.4154Z" stroke="#292929" stroke-width="1.12001"/>
<path opacity="0.4" d="M368.277 25.4769V29.957C369.179 29.5776 369.765 28.6949 369.765 27.717C369.765 26.739 369.179 25.8564 368.277 25.4769Z" fill="#292929"/>
<path d="M342.8 24.4154C342.8 23.2428 343.751 22.2923 344.923 22.2923H362.97C364.142 22.2923 365.093 23.2428 365.093 24.4154V29.7231C365.093 30.8956 364.142 31.8461 362.97 31.8461H344.923C343.751 31.8461 342.8 30.8956 342.8 29.7231V24.4154Z" fill="#292929"/>
<path fill-rule="evenodd" clip-rule="evenodd" d="M324.224 23.9775C326.842 23.9777 329.36 25.0046 331.258 26.8461C331.401 26.9883 331.629 26.9865 331.77 26.8421L333.136 25.4349C333.207 25.3617 333.247 25.2625 333.246 25.1593C333.246 25.0561 333.205 24.9573 333.133 24.8849C328.152 20.0127 320.295 20.0127 315.314 24.8849C315.242 24.9573 315.201 25.056 315.2 25.1592C315.2 25.2624 315.239 25.3617 315.31 25.4349L316.677 26.8421C316.817 26.9867 317.046 26.9885 317.189 26.8461C319.087 25.0045 321.605 23.9775 324.224 23.9775ZM324.261 28.3137C325.7 28.3136 327.087 28.8595 328.154 29.8451C328.298 29.985 328.525 29.982 328.666 29.8383L330.03 28.4311C330.102 28.3573 330.142 28.2572 330.141 28.1531C330.14 28.0491 330.098 27.9498 330.025 27.8775C326.777 24.7942 321.748 24.7942 318.501 27.8775C318.428 27.9498 318.386 28.0491 318.385 28.1532C318.384 28.2573 318.424 28.3574 318.496 28.4311L319.86 29.8383C320 29.982 320.228 29.985 320.372 29.8451C321.438 28.8601 322.824 28.3143 324.261 28.3137ZM327.036 31.1484C327.038 31.2527 326.998 31.3533 326.925 31.4264L324.565 33.8576C324.496 33.929 324.401 33.9692 324.303 33.9692C324.204 33.9692 324.11 33.929 324.041 33.8576L321.68 31.4264C321.607 31.3533 321.567 31.2526 321.57 31.1483C321.572 31.044 321.616 30.9451 321.692 30.8752C323.199 29.5739 325.407 29.5739 326.914 30.8752C326.99 30.9452 327.034 31.044 327.036 31.1484Z" fill="#292929"/>
<path d="M298.215 24.4154C298.215 23.8291 298.691 23.3539 299.277 23.3539H300.339C300.925 23.3539 301.4 23.8291 301.4 24.4154V32.9077C301.4 33.494 300.925 33.9692 300.339 33.9692H299.277C298.691 33.9692 298.215 33.494 298.215 32.9077V24.4154Z" fill="#292929"/>
<path d="M303.523 22.2923C303.523 21.706 303.998 21.2308 304.585 21.2308H305.646C306.233 21.2308 306.708 21.706 306.708 22.2923V32.9077C306.708 33.494 306.233 33.9692 305.646 33.9692H304.585C303.998 33.9692 303.523 33.494 303.523 32.9077V22.2923Z" fill="#292929"/>
<path d="M292.908 28.1308C292.908 27.5445 293.383 27.0692 293.969 27.0692H295.031C295.617 27.0692 296.092 27.5445 296.092 28.1308V32.9077C296.092 33.494 295.617 33.9692 295.031 33.9692H293.969C293.383 33.9692 292.908 33.494 292.908 32.9077V28.1308Z" fill="#292929"/>
<path d="M287.6 30.7846C287.6 30.1983 288.075 29.7231 288.662 29.7231H289.723C290.309 29.7231 290.785 30.1983 290.785 30.7846V32.9077C290.785 33.494 290.309 33.9692 289.723 33.9692H288.662C288.075 33.9692 287.6 33.494 287.6 32.9077V30.7846Z" fill="#292929"/>
<path d="M95.1121 171V155H101.237C102.393 155 103.354 155.182 104.12 155.547C104.891 155.906 105.466 156.398 105.846 157.023C106.232 157.648 106.425 158.357 106.425 159.148C106.425 159.799 106.3 160.357 106.05 160.82C105.8 161.279 105.464 161.651 105.042 161.937C104.62 162.224 104.149 162.43 103.628 162.555V162.711C104.195 162.742 104.74 162.917 105.261 163.234C105.787 163.547 106.216 163.99 106.55 164.562C106.883 165.135 107.05 165.828 107.05 166.641C107.05 167.469 106.849 168.214 106.448 168.875C106.047 169.531 105.443 170.049 104.636 170.43C103.828 170.81 102.813 171 101.589 171H95.1121ZM98.0105 168.578H101.128C102.18 168.578 102.938 168.378 103.401 167.977C103.87 167.57 104.104 167.049 104.104 166.414C104.104 165.94 103.987 165.513 103.753 165.133C103.518 164.747 103.185 164.445 102.753 164.227C102.32 164.003 101.805 163.891 101.206 163.891H98.0105V168.578ZM98.0105 161.805H100.878C101.378 161.805 101.828 161.714 102.229 161.531C102.63 161.344 102.945 161.081 103.175 160.742C103.409 160.398 103.526 159.992 103.526 159.523C103.526 158.904 103.307 158.393 102.87 157.992C102.438 157.591 101.794 157.391 100.94 157.391H98.0105V161.805ZM111.193 171H108.099L113.732 155H117.31L122.95 171H119.857L115.583 158.281H115.458L111.193 171ZM111.294 164.727H119.732V167.055H111.294V164.727ZM125.047 155H127.898V168.594H132.836V155H135.672V168.594H140.57V155H143.406V171H125.047V155ZM146.557 155H149.432V165.906H149.58L157.104 155H159.705V171H156.807V160.102H156.674L149.127 171H146.557V155ZM180.509 155V171H177.634V157.406H170.634V171H167.759V155H180.509ZM185.597 171H182.504L188.136 155H191.715L197.355 171H194.261L189.988 158.281H189.863L185.597 171ZM185.699 164.727H194.136V167.055H185.699V164.727ZM199.03 171V155H205.03C206.259 155 207.29 155.229 208.123 155.687C208.962 156.146 209.595 156.776 210.022 157.578C210.454 158.375 210.67 159.281 210.67 160.297C210.67 161.323 210.454 162.234 210.022 163.031C209.589 163.828 208.951 164.456 208.108 164.914C207.264 165.367 206.225 165.594 204.99 165.594H201.014V163.211H204.6C205.319 163.211 205.907 163.086 206.365 162.836C206.824 162.586 207.162 162.242 207.381 161.805C207.605 161.367 207.717 160.865 207.717 160.297C207.717 159.729 207.605 159.229 207.381 158.797C207.162 158.365 206.821 158.029 206.358 157.789C205.899 157.544 205.308 157.422 204.584 157.422H201.928V171H199.03ZM213.026 171H209.932L215.565 155H219.143L224.784 171H221.69L217.417 158.281H217.292L213.026 171ZM213.128 164.727H221.565V167.055H213.128V164.727ZM226.458 155H230.005L234.755 166.594H234.943L239.693 155H243.24V171H240.458V160.008H240.31L235.888 170.953H233.81L229.388 159.984H229.24V171H226.458V155ZM245.963 171V155H256.369V157.43H248.861V161.773H255.83V164.203H248.861V168.57H256.431V171H245.963ZM258.19 157.43V155H270.955V157.43H266.01V171H263.135V157.43H258.19ZM272.983 171V155H278.983C280.212 155 281.244 155.229 282.077 155.687C282.915 156.146 283.548 156.776 283.975 157.578C284.408 158.375 284.624 159.281 284.624 160.297C284.624 161.323 284.408 162.234 283.975 163.031C283.543 163.828 282.905 164.456 282.061 164.914C281.218 165.367 280.178 165.594 278.944 165.594H274.968V163.211H278.553C279.272 163.211 279.861 163.086 280.319 162.836C280.777 162.586 281.116 162.242 281.335 161.805C281.559 161.367 281.671 160.865 281.671 160.297C281.671 159.729 281.559 159.229 281.335 158.797C281.116 158.365 280.775 158.029 280.311 157.789C279.853 157.544 279.262 157.422 278.538 157.422H275.882V171H272.983ZM288.669 161.18H292.732C293.956 161.18 295.005 161.38 295.88 161.781C296.76 162.177 297.435 162.737 297.904 163.461C298.372 164.185 298.607 165.036 298.607 166.016C298.607 167 298.372 167.867 297.904 168.617C297.435 169.362 296.76 169.945 295.88 170.367C295.005 170.789 293.956 171 292.732 171H286.74V155H289.646V168.625H292.732C293.378 168.625 293.924 168.503 294.372 168.258C294.82 168.013 295.159 167.69 295.388 167.289C295.622 166.888 295.74 166.453 295.74 165.984C295.74 165.307 295.479 164.732 294.958 164.258C294.443 163.779 293.7 163.539 292.732 163.539H288.669V161.18ZM302.896 155V171H299.99V155H302.896Z" fill="#034236"/>
<rect x="24" y="734" width="350" height="57" rx="8" fill="#2BBDB4"/>
<path d="M166.296 774.867V768.953H167.351C167.71 768.651 168.046 768.221 168.358 767.664C168.671 767.107 168.937 766.354 169.155 765.406C169.374 764.458 169.525 763.242 169.608 761.758L169.983 755H179.851V768.953H181.663V774.844H179.351V771H168.608V774.867H166.296ZM170.194 768.953H177.538V757.078H172.171L171.921 761.758C171.853 762.888 171.741 763.904 171.585 764.805C171.434 765.706 171.239 766.503 170.999 767.195C170.765 767.883 170.496 768.469 170.194 768.953ZM187.179 771.266C186.419 771.266 185.731 771.125 185.117 770.844C184.502 770.557 184.015 770.143 183.656 769.602C183.302 769.06 183.125 768.396 183.125 767.609C183.125 766.932 183.255 766.375 183.515 765.937C183.776 765.5 184.127 765.154 184.57 764.898C185.013 764.643 185.507 764.451 186.054 764.32C186.601 764.19 187.158 764.091 187.726 764.023C188.445 763.94 189.028 763.872 189.476 763.82C189.924 763.763 190.25 763.672 190.453 763.547C190.656 763.422 190.757 763.219 190.757 762.937V762.883C190.757 762.201 190.565 761.672 190.179 761.297C189.799 760.922 189.231 760.734 188.476 760.734C187.69 760.734 187.07 760.909 186.617 761.258C186.169 761.602 185.859 761.984 185.687 762.406L183.492 761.906C183.752 761.177 184.132 760.589 184.632 760.141C185.138 759.687 185.718 759.359 186.375 759.156C187.031 758.948 187.721 758.844 188.445 758.844C188.924 758.844 189.432 758.901 189.968 759.016C190.51 759.125 191.015 759.328 191.484 759.625C191.958 759.922 192.346 760.346 192.648 760.898C192.95 761.445 193.101 762.156 193.101 763.031V771H190.82V769.359H190.726C190.575 769.661 190.348 769.958 190.046 770.25C189.744 770.542 189.356 770.784 188.882 770.977C188.408 771.169 187.841 771.266 187.179 771.266ZM187.687 769.391C188.333 769.391 188.885 769.263 189.343 769.008C189.807 768.753 190.158 768.419 190.398 768.008C190.643 767.591 190.765 767.146 190.765 766.672V765.125C190.682 765.208 190.52 765.286 190.281 765.359C190.046 765.427 189.778 765.487 189.476 765.539C189.174 765.586 188.88 765.63 188.593 765.672C188.307 765.708 188.067 765.74 187.875 765.766C187.421 765.823 187.007 765.919 186.632 766.055C186.263 766.19 185.966 766.385 185.742 766.641C185.523 766.891 185.414 767.224 185.414 767.641C185.414 768.219 185.627 768.656 186.054 768.953C186.481 769.245 187.026 769.391 187.687 769.391ZM194.834 771L194.826 768.977H195.256C195.589 768.977 195.868 768.906 196.092 768.766C196.321 768.62 196.508 768.375 196.654 768.031C196.8 767.687 196.912 767.214 196.99 766.609C197.068 766 197.126 765.234 197.162 764.312L197.373 759H205.748V771H203.459V761.016H199.537L199.35 765.094C199.303 766.083 199.201 766.948 199.045 767.687C198.894 768.427 198.673 769.044 198.381 769.539C198.089 770.029 197.714 770.396 197.256 770.641C196.798 770.88 196.24 771 195.584 771H194.834ZM213.602 771.242C212.42 771.242 211.402 770.99 210.547 770.484C209.698 769.974 209.042 769.258 208.579 768.336C208.12 767.409 207.891 766.323 207.891 765.078C207.891 763.849 208.12 762.766 208.579 761.828C209.042 760.891 209.688 760.159 210.516 759.633C211.349 759.107 212.323 758.844 213.438 758.844C214.115 758.844 214.771 758.956 215.407 759.18C216.042 759.404 216.612 759.755 217.118 760.234C217.623 760.714 218.021 761.336 218.313 762.102C218.605 762.862 218.75 763.786 218.75 764.875V765.703H209.211V763.953H216.461C216.461 763.339 216.336 762.794 216.086 762.32C215.836 761.841 215.485 761.464 215.032 761.187C214.584 760.911 214.058 760.773 213.454 760.773C212.797 760.773 212.224 760.935 211.735 761.258C211.25 761.576 210.875 761.992 210.61 762.508C210.349 763.018 210.219 763.573 210.219 764.172V765.539C210.219 766.341 210.36 767.023 210.641 767.586C210.928 768.148 211.326 768.578 211.836 768.875C212.347 769.167 212.943 769.312 213.625 769.312C214.068 769.312 214.472 769.25 214.836 769.125C215.201 768.995 215.516 768.802 215.782 768.547C216.047 768.292 216.25 767.977 216.391 767.602L218.602 768C218.425 768.651 218.107 769.221 217.649 769.711C217.196 770.195 216.625 770.573 215.938 770.844C215.256 771.109 214.477 771.242 213.602 771.242ZM226.081 771.242C224.899 771.242 223.881 770.99 223.026 770.484C222.177 769.974 221.521 769.258 221.058 768.336C220.599 767.409 220.37 766.323 220.37 765.078C220.37 763.849 220.599 762.766 221.058 761.828C221.521 760.891 222.167 760.159 222.995 759.633C223.828 759.107 224.802 758.844 225.917 758.844C226.594 758.844 227.25 758.956 227.886 759.18C228.521 759.404 229.091 759.755 229.597 760.234C230.102 760.714 230.5 761.336 230.792 762.102C231.084 762.862 231.229 763.786 231.229 764.875V765.703H221.69V763.953H228.94C228.94 763.339 228.815 762.794 228.565 762.32C228.315 761.841 227.964 761.464 227.511 761.187C227.063 760.911 226.537 760.773 225.933 760.773C225.276 760.773 224.703 760.935 224.214 761.258C223.729 761.576 223.354 761.992 223.089 762.508C222.828 763.018 222.698 763.573 222.698 764.172V765.539C222.698 766.341 222.839 767.023 223.12 767.586C223.407 768.148 223.805 768.578 224.315 768.875C224.826 769.167 225.422 769.312 226.104 769.312C226.547 769.312 226.951 769.25 227.315 769.125C227.68 768.995 227.995 768.802 228.261 768.547C228.526 768.292 228.729 767.977 228.87 767.602L231.081 768C230.904 768.651 230.586 769.221 230.128 769.711C229.675 770.195 229.104 770.573 228.417 770.844C227.735 771.109 226.956 771.242 226.081 771.242Z" fill="#EAF7F5"/>
<rect x="25" y="300" width="348" height="50" rx="7" fill="white"/>
<rect x="25" y="300" width="348" height="50" rx="7" stroke="#09847D" stroke-width="2"/>
<path d="M51.6094 317.5V333.5H49.1875V319.922H49.0938L45.2656 322.422V320.109L49.2578 317.5H51.6094ZM61.0903 333.719C60.3768 333.708 59.6737 333.578 58.981 333.328C58.2935 333.078 57.6685 332.661 57.106 332.078C56.5435 331.495 56.0929 330.711 55.7544 329.727C55.4211 328.742 55.2544 327.513 55.2544 326.039C55.2544 324.643 55.3924 323.404 55.6685 322.32C55.9497 321.237 56.3534 320.323 56.8794 319.578C57.4054 318.828 58.0409 318.258 58.7856 317.867C59.5304 317.477 60.3664 317.281 61.2935 317.281C62.2466 317.281 63.0929 317.469 63.8325 317.844C64.5721 318.219 65.1711 318.737 65.6294 319.398C66.0929 320.06 66.3872 320.812 66.5122 321.656H64.1294C63.9679 320.99 63.6476 320.445 63.1685 320.023C62.6893 319.602 62.0643 319.391 61.2935 319.391C60.1216 319.391 59.2075 319.901 58.5513 320.922C57.9002 321.943 57.5721 323.362 57.5669 325.18H57.6841C57.9601 324.727 58.2987 324.341 58.6997 324.023C59.106 323.701 59.5591 323.453 60.0591 323.281C60.5643 323.104 61.0955 323.016 61.6528 323.016C62.5799 323.016 63.4185 323.242 64.1685 323.695C64.9237 324.143 65.5252 324.763 65.9731 325.555C66.4211 326.346 66.645 327.253 66.645 328.273C66.645 329.294 66.4132 330.219 65.9497 331.047C65.4914 331.875 64.8455 332.531 64.0122 333.016C63.1789 333.495 62.2049 333.729 61.0903 333.719ZM61.0825 331.687C61.6971 331.687 62.2466 331.536 62.731 331.234C63.2153 330.932 63.5981 330.526 63.8794 330.016C64.1606 329.505 64.3013 328.935 64.3013 328.305C64.3013 327.69 64.1632 327.13 63.8872 326.625C63.6164 326.12 63.2414 325.719 62.7622 325.422C62.2882 325.125 61.7466 324.977 61.1372 324.977C60.6737 324.977 60.244 325.065 59.8481 325.242C59.4575 325.419 59.1138 325.664 58.8169 325.977C58.52 326.289 58.2856 326.648 58.1138 327.055C57.9471 327.456 57.8638 327.88 57.8638 328.328C57.8638 328.927 58.0018 329.482 58.2778 329.992C58.5591 330.503 58.9419 330.914 59.4263 331.227C59.9159 331.534 60.4679 331.687 61.0825 331.687ZM69.0576 333.5V331.75L74.4717 326.141C75.0498 325.531 75.5264 324.997 75.9014 324.539C76.2816 324.076 76.5654 323.635 76.7529 323.219C76.9404 322.802 77.0342 322.359 77.0342 321.891C77.0342 321.359 76.9092 320.901 76.6592 320.516C76.4092 320.125 76.068 319.826 75.6357 319.617C75.2034 319.404 74.7165 319.297 74.1748 319.297C73.6019 319.297 73.1019 319.414 72.6748 319.648C72.2477 319.883 71.9196 320.214 71.6904 320.641C71.4613 321.068 71.3467 321.568 71.3467 322.141H69.042C69.042 321.167 69.2659 320.315 69.7139 319.586C70.1618 318.857 70.7764 318.292 71.5576 317.891C72.3389 317.484 73.2269 317.281 74.2217 317.281C75.2269 317.281 76.1123 317.482 76.8779 317.883C77.6488 318.279 78.2503 318.82 78.6826 319.508C79.1149 320.19 79.3311 320.961 79.3311 321.82C79.3311 322.414 79.2191 322.995 78.9951 323.562C78.7764 324.13 78.3936 324.763 77.8467 325.461C77.2998 326.154 76.5394 326.995 75.5654 327.984L72.3857 331.312V331.43H79.5889V333.5H69.0576Z" fill="#2A423E"/>
<rect x="25" y="384" width="348" height="50" rx="7" fill="white"/>
<rect x="25" y="384" width="348" height="50" rx="7" stroke="#09847D" stroke-width="2"/>
<path d="M45.2031 414.375V412.422L52.1172 401.5H53.6563V404.375H52.6797L47.7344 412.203V412.328H57.2109V414.375H45.2031ZM52.7891 417.5V413.781L52.8047 412.891V401.5H55.0938V417.5H52.7891ZM65.0864 417.719C64.3729 417.708 63.6698 417.578 62.977 417.328C62.2895 417.078 61.6645 416.661 61.102 416.078C60.5395 415.495 60.089 414.711 59.7505 413.727C59.4172 412.742 59.2505 411.513 59.2505 410.039C59.2505 408.643 59.3885 407.404 59.6645 406.32C59.9458 405.237 60.3494 404.323 60.8755 403.578C61.4015 402.828 62.0369 402.258 62.7817 401.867C63.5265 401.477 64.3625 401.281 65.2895 401.281C66.2427 401.281 67.089 401.469 67.8286 401.844C68.5682 402.219 69.1672 402.737 69.6255 403.398C70.089 404.06 70.3833 404.812 70.5083 405.656H68.1255C67.964 404.99 67.6437 404.445 67.1645 404.023C66.6854 403.602 66.0604 403.391 65.2895 403.391C64.1177 403.391 63.2036 403.901 62.5474 404.922C61.8963 405.943 61.5682 407.362 61.563 409.18H61.6802C61.9562 408.727 62.2948 408.341 62.6958 408.023C63.102 407.701 63.5552 407.453 64.0552 407.281C64.5604 407.104 65.0916 407.016 65.6489 407.016C66.576 407.016 67.4145 407.242 68.1645 407.695C68.9198 408.143 69.5213 408.763 69.9692 409.555C70.4172 410.346 70.6411 411.253 70.6411 412.273C70.6411 413.294 70.4093 414.219 69.9458 415.047C69.4875 415.875 68.8416 416.531 68.0083 417.016C67.175 417.495 66.201 417.729 65.0864 417.719ZM65.0786 415.687C65.6932 415.687 66.2427 415.536 66.727 415.234C67.2114 414.932 67.5942 414.526 67.8755 414.016C68.1567 413.505 68.2974 412.935 68.2974 412.305C68.2974 411.69 68.1593 411.13 67.8833 410.625C67.6125 410.12 67.2375 409.719 66.7583 409.422C66.2843 409.125 65.7427 408.977 65.1333 408.977C64.6698 408.977 64.2401 409.065 63.8442 409.242C63.4536 409.419 63.1099 409.664 62.813 409.977C62.5161 410.289 62.2817 410.648 62.1099 411.055C61.9432 411.456 61.8599 411.88 61.8599 412.328C61.8599 412.927 61.9979 413.482 62.2739 413.992C62.5552 414.503 62.938 414.914 63.4224 415.227C63.9119 415.534 64.464 415.687 65.0786 415.687Z" fill="#2A423E"/>
<g clip-path="url(#clip1_6_210)">
<path d="M39.41 103.59L34.83 99L39.41 94.41L38 93L32 99L38 105L39.41 103.59Z" fill="#0E2C26"/>
</g>
</g>
<defs>
<filter id="filter0_d_6_210" x="0" y="0" width="398" height="852" filterUnits="userSpaceOnUse" color-interpolation-filters="sRGB">
<feFlood flood-opacity="0" result="BackgroundImageFix"/>
<feColorMatrix in="SourceAlpha" type="matrix" values="0 0 0 0 0 0 0 0 0 0 0 0 0 0 0 0 0 0 127 0" result="hardAlpha"/>
<feOffset dy="4"/>
<feGaussianBlur stdDeviation="2"/>
<feComposite in2="hardAlpha" operator="out"/>
<feColorMatrix type="matrix" values="0 0 0 0 0 0 0 0 0 0 0 0 0 0 0 0 0 0 0.25 0"/>
<feBlend mode="normal" in2="BackgroundImageFix" result="effect1_dropShadow_6_210"/>
<feBlend mode="normal" in="SourceGraphic" in2="effect1_dropShadow_6_210" result="shape"/>
</filter>
<filter id="filter1_d_6_210" x="60" y="-180" width="548" height="550" filterUnits="userSpaceOnUse" color-interpolation-filters="sRGB">
<feFlood flood-opacity="0" result="BackgroundImageFix"/>
<feColorMatrix in="SourceAlpha" type="matrix" values="0 0 0 0 0 0 0 0 0 0 0 0 0 0 0 0 0 0 127 0" result="hardAlpha"/>
<feMorphology radius="122" operator="dilate" in="SourceAlpha" result="effect1_dropShadow_6_210"/>
<feOffset dx="-23" dy="6"/>
<feGaussianBlur stdDeviation="70"/>
<feComposite in2="hardAlpha" operator="out"/>
<feColorMatrix type="matrix" values="0 0 0 0 0.772549 0 0 0 0 0.988235 0 0 0 0 0.945098 0 0 0 0.3 0"/>
<feBlend mode="normal" in2="BackgroundImageFix" result="effect1_dropShadow_6_210"/>
<feBlend mode="normal" in="SourceGraphic" in2="effect1_dropShadow_6_210" result="shape"/>
</filter>
<filter id="filter2_d_6_210" x="-203" y="-182" width="548" height="550" filterUnits="userSpaceOnUse" color-interpolation-filters="sRGB">
<feFlood flood-opacity="0" result="BackgroundImageFix"/>
<feColorMatrix in="SourceAlpha" type="matrix" values="0 0 0 0 0 0 0 0 0 0 0 0 0 0 0 0 0 0 127 0" result="hardAlpha"/>
<feMorphology radius="122" operator="dilate" in="SourceAlpha" result="effect1_dropShadow_6_210"/>
<feOffset dx="23" dy="4"/>
<feGaussianBlur stdDeviation="70"/>
<feComposite in2="hardAlpha" operator="out"/>
<feColorMatrix type="matrix" values="0 0 0 0 0.792157 0 0 0 0 0.870588 0 0 0 0 0.988235 0 0 0 0.3 0"/>
<feBlend mode="normal" in2="BackgroundImageFix" result="effect1_dropShadow_6_210"/>
<feBlend mode="normal" in="SourceGraphic" in2="effect1_dropShadow_6_210" result="shape"/>
</filter>
<filter id="filter3_d_6_210" x="55" y="426" width="548" height="550" filterUnits="userSpaceOnUse" color-interpolation-filters="sRGB">
<feFlood flood-opacity="0" result="BackgroundImageFix"/>
<feColorMatrix in="SourceAlpha" type="matrix" values="0 0 0 0 0 0 0 0 0 0 0 0 0 0 0 0 0 0 127 0" result="hardAlpha"/>
<feMorphology radius="122" operator="dilate" in="SourceAlpha" result="effect1_dropShadow_6_210"/>
<feOffset dx="-23" dy="4"/>
<feGaussianBlur stdDeviation="70"/>
<feComposite in2="hardAlpha" operator="out"/>
<feColorMatrix type="matrix" values="0 0 0 0 1 0 0 0 0 0.917647 0 0 0 0 0.780392 0 0 0 0.3 0"/>
<feBlend mode="normal" in2="BackgroundImageFix" result="effect1_dropShadow_6_210"/>
<feBlend mode="normal" in="SourceGraphic" in2="effect1_dropShadow_6_210" result="shape"/>
</filter>
<filter id="filter4_d_6_210" x="-208" y="426" width="548" height="550" filterUnits="userSpaceOnUse" color-interpolation-filters="sRGB">
<feFlood flood-opacity="0" result="BackgroundImageFix"/>
<feColorMatrix in="SourceAlpha" type="matrix" values="0 0 0 0 0 0 0 0 0 0 0 0 0 0 0 0 0 0 127 0" result="hardAlpha"/>
<feMorphology radius="122" operator="dilate" in="SourceAlpha" result="effect1_dropShadow_6_210"/>
<feOffset dx="23" dy="4"/>
<feGaussianBlur stdDeviation="70"/>
<feComposite in2="hardAlpha" operator="out"/>
<feColorMatrix type="matrix" values="0 0 0 0 1 0 0 0 0 0.866667 0 0 0 0 0.780392 0 0 0 0.3 0"/>
<feBlend mode="normal" in2="BackgroundImageFix" result="effect1_dropShadow_6_210"/>
<feBlend mode="normal" in="SourceGraphic" in2="effect1_dropShadow_6_210" result="shape"/>
</filter>
<clipPath id="clip0_6_210">
<rect width="390" height="844" fill="white" transform="translate(4)"/>
</clipPath>
<clipPath id="clip1_6_210">
<rect width="24" height="24" fill="white" transform="translate(24 87)"/>
</clipPath>
</defs>
</svg>
